<svg width="123" height="123" viewBox="0 0 123 123" fill="none" xmlns="http://www.w3.org/2000/svg">
<circle cx="61.5" cy="61.5" r="58.5" stroke="black" stroke-width="6"/>
<path d="M119 71.5684C114.597 86.9483 98.9399 88.4863 90.6223 83.3597C86.1173 80.5829 78.7416 76.1519 69.5837 73.1619C61.8334 70.6315 52.8066 69.1332 43.1631 70.5431C22.1245 73.6192 5 82.847 5 82.847" stroke="black" stroke-width="4"/>
<path d="M78 76C96.8276 65.8022 107.459 66.1394 120 72.6007" stroke="black" stroke-width="4"/>
<path d="M26 109C47.9848 106.923 68.3987 94.1784 90 99.1366" stroke="black" stroke-width="4"/>
<path d="M12 96.9063C47.6636 78.6783 66.9813 96.9063 86.7944 98.8593C106.607 100.812 116.527 81.8044 118 81" stroke="black" stroke-width="4"/>
<line x1="63" y1="70" x2="63" y2="19" stroke="black" stroke-width="6"/>
<line x1="43" y1="33" x2="85" y2="33" stroke="black" stroke-width="6"/>
</svg>
