<svg width="123" height="123" viewBox="0 0 123 123" fill="none" xmlns="http://www.w3.org/2000/svg">
  <style>
    .fav-stroke {
      stroke: white;
    }

    @media (prefers-color-scheme: light) {
      .fav-stroke {
        stroke: black;
      }
    }
    
  </style>
  
  <circle cx="61.5" cy="61.5" r="60.5" class="fav-stroke" stroke-width="2"/>
  <path d="M120.5 71.5297C116 86.5297 100 88.0297 91.5 83.0297C86.8962 80.3216 79.3588 75.9999 70 73.0838C62.0798 70.6159 52.855 69.1546 43 70.5297C21.5 73.5298 4 82.5297 4 82.5297" class="fav-stroke" stroke-width="2"/>
  <path d="M77.5 75.5C97 66.5 108.011 66.7976 121 72.5" class="fav-stroke" stroke-width="2"/>
  <path d="M24 109C46.6718 106.923 67.7237 94.1784 90 99.1366" class="fav-stroke" stroke-width="2"/>
  <path d="M12 96.8639C48 78.6845 67.5 96.8639 87.5 98.8117C107.5 100.76 117.513 81.8023 119 81" class="fav-stroke" stroke-width="2"/>
  <line x1="61.5" y1="71" x2="61.5" y2="20" class="fav-stroke" stroke-width="3"/>
  <line x1="41" y1="34.5" x2="83" y2="34.5" class="fav-stroke" stroke-width="3"/>
</svg>
